<svg width="30" height="26" viewBox="0 0 30 26" fill="none" xmlns="http://www.w3.org/2000/svg">
<path d="M0.628174 2.47716C0.628174 1.31671 1.56571 0.379183 2.72615 0.379183H27.9018C29.0623 0.379183 29.9998 1.31671 29.9998 2.47716C29.9998 3.6376 29.0623 4.57513 27.9018 4.57513H2.72615C1.56571 4.57513 0.628174 3.6376 0.628174 2.47716ZM0.628174 12.967C0.628174 11.8066 1.56571 10.8691 2.72615 10.8691H27.9018C29.0623 10.8691 29.9998 11.8066 29.9998 12.967C29.9998 14.1275 29.0623 15.065 27.9018 15.065H2.72615C1.56571 15.065 0.628174 14.1275 0.628174 12.967ZM29.9998 23.4569C29.9998 24.6173 29.0623 25.5549 27.9018 25.5549H2.72615C1.56571 25.5549 0.628174 24.6173 0.628174 23.4569C0.628174 22.2964 1.56571 21.3589 2.72615 21.3589H27.9018C29.0623 21.3589 29.9998 22.2964 29.9998 23.4569Z" fill="black"/>
</svg>
