<svg width="36" height="36" viewBox="0 0 36 36" fill="none" xmlns="http://www.w3.org/2000/svg">
<rect width="36" height="36" rx="18" fill="#8D8A8A"/>
<path d="M23.0495 10.7708C21.9278 10.7708 20.8719 11.309 20.2145 12.217L18.8011 14.1727C18.6162 14.4275 18.3204 14.5795 18.004 14.5795C17.6877 14.5795 17.3918 14.4275 17.2069 14.1727L15.7936 12.217C15.1362 11.309 14.0802 10.7708 12.9586 10.7708C11.0275 10.7708 9.46207 12.3362 9.46207 14.2672C9.46207 16.3175 10.7769 18.3102 12.2601 20.1139C13.9488 22.1682 16.0154 23.9761 17.4329 25.0566C17.5644 25.1553 17.7575 25.2292 18.0081 25.2292C18.2588 25.2292 18.4519 25.1553 18.5834 25.0566C20.0008 23.9761 22.0675 22.1641 23.7562 20.1139C25.2435 18.3102 26.5542 16.3175 26.5542 14.2672C26.5542 12.3362 24.9888 10.7708 23.0577 10.7708H23.0495ZM18.6162 11.0625C19.6434 9.64086 21.2951 8.79858 23.0495 8.79858C26.0694 8.79858 28.5181 11.2474 28.5181 14.2672C28.5181 17.0858 26.7555 19.5633 25.2682 21.367C23.4562 23.5693 21.2704 25.4798 19.7708 26.6221C19.2654 27.0083 18.6409 27.2014 17.9999 27.2014C17.359 27.2014 16.7344 27.0083 16.2291 26.6221C14.7294 25.4798 12.5436 23.5693 10.7317 21.3712C9.24431 19.5674 7.48169 17.0858 7.48169 14.2672C7.48169 11.2474 9.93046 8.79858 12.9503 8.79858C14.7048 8.79858 16.3564 9.64086 17.3836 11.0625L17.9999 11.913L18.6162 11.0625Z" fill="white"/>
</svg>
