<svg width="2946" height="2308" viewBox="0 0 2946 2308" fill="none" xmlns="http://www.w3.org/2000/svg">
<rect width="2946" height="2308" fill="white"/>
<rect width="486" height="494" transform="translate(114 251)" fill="#D0D0D0"/>
<path d="M285.594 558.542C282.487 558.542 279.663 557.765 277.122 556.212C274.721 554.8 272.744 552.894 271.191 550.493C269.779 547.951 269.073 545.127 269.073 542.021C269.073 538.914 269.779 536.161 271.191 533.76C272.744 531.219 274.721 529.242 277.122 527.83C279.663 526.277 282.487 525.5 285.594 525.5C288.841 525.5 291.666 526.277 294.066 527.83C296.608 529.242 298.584 531.219 299.997 533.76C301.409 536.161 302.115 538.914 302.115 542.021C302.115 545.127 301.409 547.951 299.997 550.493C298.584 552.894 296.608 554.8 294.066 556.212C291.666 557.765 288.841 558.542 285.594 558.542Z" fill="black"/>
<path d="M356.588 558.542C353.482 558.542 350.658 557.765 348.116 556.212C345.716 554.8 343.739 552.894 342.186 550.493C340.774 547.951 340.068 545.127 340.068 542.021C340.068 538.914 340.774 536.161 342.186 533.76C343.739 531.219 345.716 529.242 348.116 527.83C350.658 526.277 353.482 525.5 356.588 525.5C359.836 525.5 362.66 526.277 365.061 527.83C367.602 529.242 369.579 531.219 370.991 533.76C372.403 536.161 373.109 538.914 373.109 542.021C373.109 545.127 372.403 547.951 370.991 550.493C369.579 552.894 367.602 554.8 365.061 556.212C362.66 557.765 359.836 558.542 356.588 558.542Z" fill="black"/>
<path d="M428.313 558.542C425.207 558.542 422.383 557.765 419.841 556.212C417.441 554.8 415.464 552.894 413.911 550.493C412.499 547.951 411.793 545.127 411.793 542.021C411.793 538.914 412.499 536.161 413.911 533.76C415.464 531.219 417.441 529.242 419.841 527.83C422.383 526.277 425.207 525.5 428.313 525.5C431.561 525.5 434.385 526.277 436.786 527.83C439.327 529.242 441.304 531.219 442.716 533.76C444.128 536.161 444.834 538.914 444.834 542.021C444.834 545.127 444.128 547.951 442.716 550.493C441.304 552.894 439.327 554.8 436.786 556.212C434.385 557.765 431.561 558.542 428.313 558.542Z" fill="black"/>
<path d="M376.707 581.707C377.098 581.317 377.098 580.683 376.707 580.293L370.343 573.929C369.953 573.538 369.319 573.538 368.929 573.929C368.538 574.319 368.538 574.953 368.929 575.343L374.586 581L368.929 586.657C368.538 587.047 368.538 587.681 368.929 588.071C369.319 588.462 369.953 588.462 370.343 588.071L376.707 581.707ZM273 581V582H376V581V580H273V581Z" fill="black"/>
<rect width="486" height="494" transform="translate(114 809)" fill="#D0D0D0"/>
<path d="M285.594 1116.54C282.487 1116.54 279.663 1115.77 277.122 1114.21C274.721 1112.8 272.744 1110.89 271.191 1108.49C269.779 1105.95 269.073 1103.13 269.073 1100.02C269.073 1096.91 269.779 1094.16 271.191 1091.76C272.744 1089.22 274.721 1087.24 277.122 1085.83C279.663 1084.28 282.487 1083.5 285.594 1083.5C288.841 1083.5 291.666 1084.28 294.066 1085.83C296.608 1087.24 298.584 1089.22 299.997 1091.76C301.409 1094.16 302.115 1096.91 302.115 1100.02C302.115 1103.13 301.409 1105.95 299.997 1108.49C298.584 1110.89 296.608 1112.8 294.066 1114.21C291.666 1115.77 288.841 1116.54 285.594 1116.54Z" fill="black"/>
<path d="M356.588 1116.54C353.482 1116.54 350.658 1115.77 348.116 1114.21C345.716 1112.8 343.739 1110.89 342.186 1108.49C340.774 1105.95 340.068 1103.13 340.068 1100.02C340.068 1096.91 340.774 1094.16 342.186 1091.76C343.739 1089.22 345.716 1087.24 348.116 1085.83C350.658 1084.28 353.482 1083.5 356.588 1083.5C359.836 1083.5 362.66 1084.28 365.061 1085.83C367.602 1087.24 369.579 1089.22 370.991 1091.76C372.403 1094.16 373.109 1096.91 373.109 1100.02C373.109 1103.13 372.403 1105.95 370.991 1108.49C369.579 1110.89 367.602 1112.8 365.061 1114.21C362.66 1115.77 359.836 1116.54 356.588 1116.54Z" fill="black"/>
<path d="M428.313 1116.54C425.207 1116.54 422.383 1115.77 419.841 1114.21C417.441 1112.8 415.464 1110.89 413.911 1108.49C412.499 1105.95 411.793 1103.13 411.793 1100.02C411.793 1096.91 412.499 1094.16 413.911 1091.76C415.464 1089.22 417.441 1087.24 419.841 1085.83C422.383 1084.28 425.207 1083.5 428.313 1083.5C431.561 1083.5 434.385 1084.28 436.786 1085.83C439.327 1087.24 441.304 1089.22 442.716 1091.76C444.128 1094.16 444.834 1096.91 444.834 1100.02C444.834 1103.13 444.128 1105.95 442.716 1108.49C441.304 1110.89 439.327 1112.8 436.786 1114.21C434.385 1115.77 431.561 1116.54 428.313 1116.54Z" fill="black"/>
<path d="M307.305 1139.28C306.908 1139.66 306.897 1140.3 307.281 1140.69L313.532 1147.17C313.916 1147.57 314.549 1147.58 314.946 1147.19C315.343 1146.81 315.354 1146.18 314.971 1145.78L309.414 1140.02L315.169 1134.47C315.567 1134.08 315.578 1133.45 315.194 1133.05C314.81 1132.66 314.177 1132.65 313.78 1133.03L307.305 1139.28ZM365 1141L365.018 1140L308.018 1139L308 1140L307.982 1141L364.982 1142L365 1141Z" fill="black"/>
<rect width="486" height="494" transform="translate(114 1367)" fill="#D0D0D0"/>
<path d="M285.594 1674.54C282.487 1674.54 279.663 1673.77 277.122 1672.21C274.721 1670.8 272.744 1668.89 271.191 1666.49C269.779 1663.95 269.073 1661.13 269.073 1658.02C269.073 1654.91 269.779 1652.16 271.191 1649.76C272.744 1647.22 274.721 1645.24 277.122 1643.83C279.663 1642.28 282.487 1641.5 285.594 1641.5C288.841 1641.5 291.666 1642.28 294.066 1643.83C296.608 1645.24 298.584 1647.22 299.997 1649.76C301.409 1652.16 302.115 1654.91 302.115 1658.02C302.115 1661.13 301.409 1663.95 299.997 1666.49C298.584 1668.89 296.608 1670.8 294.066 1672.21C291.666 1673.77 288.841 1674.54 285.594 1674.54Z" fill="black"/>
<path d="M356.588 1674.54C353.482 1674.54 350.658 1673.77 348.116 1672.21C345.716 1670.8 343.739 1668.89 342.186 1666.49C340.774 1663.95 340.068 1661.13 340.068 1658.02C340.068 1654.91 340.774 1652.16 342.186 1649.76C343.739 1647.22 345.716 1645.24 348.116 1643.83C350.658 1642.28 353.482 1641.5 356.588 1641.5C359.836 1641.5 362.66 1642.28 365.061 1643.83C367.602 1645.24 369.579 1647.22 370.991 1649.76C372.403 1652.16 373.109 1654.91 373.109 1658.02C373.109 1661.13 372.403 1663.95 370.991 1666.49C369.579 1668.89 367.602 1670.8 365.061 1672.21C362.66 1673.77 359.836 1674.54 356.588 1674.54Z" fill="black"/>
<path d="M428.313 1674.54C425.207 1674.54 422.383 1673.77 419.841 1672.21C417.441 1670.8 415.464 1668.89 413.911 1666.49C412.499 1663.95 411.793 1661.13 411.793 1658.02C411.793 1654.91 412.499 1652.16 413.911 1649.76C415.464 1647.22 417.441 1645.24 419.841 1643.83C422.383 1642.28 425.207 1641.5 428.313 1641.5C431.561 1641.5 434.385 1642.28 436.786 1643.83C439.327 1645.24 441.304 1647.22 442.716 1649.76C444.128 1652.16 444.834 1654.91 444.834 1658.02C444.834 1661.13 444.128 1663.95 442.716 1666.49C441.304 1668.89 439.327 1670.8 436.786 1672.21C434.385 1673.77 431.561 1674.54 428.313 1674.54Z" fill="black"/>
<rect width="486" height="494" transform="translate(715 251)" fill="#D0D0D0"/>
<path d="M886.594 558.542C883.487 558.542 880.663 557.765 878.122 556.212C875.721 554.8 873.744 552.894 872.191 550.493C870.779 547.951 870.073 545.127 870.073 542.021C870.073 538.914 870.779 536.161 872.191 533.76C873.744 531.219 875.721 529.242 878.122 527.83C880.663 526.277 883.487 525.5 886.594 525.5C889.841 525.5 892.666 526.277 895.066 527.83C897.608 529.242 899.584 531.219 900.997 533.76C902.409 536.161 903.115 538.914 903.115 542.021C903.115 545.127 902.409 547.951 900.997 550.493C899.584 552.894 897.608 554.8 895.066 556.212C892.666 557.765 889.841 558.542 886.594 558.542Z" fill="black"/>
<path d="M957.588 558.542C954.482 558.542 951.658 557.765 949.116 556.212C946.716 554.8 944.739 552.894 943.186 550.493C941.774 547.951 941.068 545.127 941.068 542.021C941.068 538.914 941.774 536.161 943.186 533.76C944.739 531.219 946.716 529.242 949.116 527.83C951.658 526.277 954.482 525.5 957.588 525.5C960.836 525.5 963.66 526.277 966.061 527.83C968.602 529.242 970.579 531.219 971.991 533.76C973.403 536.161 974.109 538.914 974.109 542.021C974.109 545.127 973.403 547.951 971.991 550.493C970.579 552.894 968.602 554.8 966.061 556.212C963.66 557.765 960.836 558.542 957.588 558.542Z" fill="black"/>
<path d="M990.588 558.542C987.482 558.542 984.658 557.765 982.116 556.212C979.716 554.8 977.739 552.894 976.186 550.493C974.774 547.951 974.068 545.127 974.068 542.021C974.068 538.914 974.774 536.161 976.186 533.76C977.739 531.219 979.716 529.242 982.116 527.83C984.658 526.277 987.482 525.5 990.588 525.5C993.836 525.5 996.66 526.277 999.061 527.83C1001.6 529.242 1003.58 531.219 1004.99 533.76C1006.4 536.161 1007.11 538.914 1007.11 542.021C1007.11 545.127 1006.4 547.951 1004.99 550.493C1003.58 552.894 1001.6 554.8 999.061 556.212C996.66 557.765 993.836 558.542 990.588 558.542Z" fill="black"/>
<path d="M962.707 583.707C963.098 583.317 963.098 582.683 962.707 582.293L956.343 575.929C955.953 575.538 955.319 575.538 954.929 575.929C954.538 576.319 954.538 576.953 954.929 577.343L960.586 583L954.929 588.657C954.538 589.047 954.538 589.681 954.929 590.071C955.319 590.462 955.953 590.462 956.343 590.071L962.707 583.707ZM901 583V584H962V583V582H901V583Z" fill="black"/>
<rect width="486" height="494" transform="matrix(-1 0 0 1 1201 809)" fill="#D0D0D0"/>
<path d="M1029.41 1116.54C1032.51 1116.54 1035.34 1115.77 1037.88 1114.21C1040.28 1112.8 1042.26 1110.89 1043.81 1108.49C1045.22 1105.95 1045.93 1103.13 1045.93 1100.02C1045.93 1096.91 1045.22 1094.16 1043.81 1091.76C1042.26 1089.22 1040.28 1087.24 1037.88 1085.83C1035.34 1084.28 1032.51 1083.5 1029.41 1083.5C1026.16 1083.5 1023.33 1084.28 1020.93 1085.83C1018.39 1087.24 1016.42 1089.22 1015 1091.76C1013.59 1094.16 1012.89 1096.91 1012.89 1100.02C1012.89 1103.13 1013.59 1105.95 1015 1108.49C1016.42 1110.89 1018.39 1112.8 1020.93 1114.21C1023.33 1115.77 1026.16 1116.54 1029.41 1116.54Z" fill="black"/>
<path d="M958.412 1116.54C961.518 1116.54 964.342 1115.77 966.884 1114.21C969.284 1112.8 971.261 1110.89 972.814 1108.49C974.226 1105.95 974.932 1103.13 974.932 1100.02C974.932 1096.91 974.226 1094.16 972.814 1091.76C971.261 1089.22 969.284 1087.24 966.884 1085.83C964.342 1084.28 961.518 1083.5 958.412 1083.5C955.164 1083.5 952.34 1084.28 949.939 1085.83C947.398 1087.24 945.421 1089.22 944.009 1091.76C942.597 1094.16 941.891 1096.91 941.891 1100.02C941.891 1103.13 942.597 1105.95 944.009 1108.49C945.421 1110.89 947.398 1112.8 949.939 1114.21C952.34 1115.77 955.164 1116.54 958.412 1116.54Z" fill="black"/>
<path d="M925.412 1116.54C928.518 1116.54 931.342 1115.77 933.884 1114.21C936.284 1112.8 938.261 1110.89 939.814 1108.49C941.226 1105.95 941.932 1103.13 941.932 1100.02C941.932 1096.91 941.226 1094.16 939.814 1091.76C938.261 1089.22 936.284 1087.24 933.884 1085.83C931.342 1084.28 928.518 1083.5 925.412 1083.5C922.164 1083.5 919.34 1084.28 916.939 1085.83C914.398 1087.24 912.421 1089.22 911.009 1091.76C909.597 1094.16 908.891 1096.91 908.891 1100.02C908.891 1103.13 909.597 1105.95 911.009 1108.49C912.421 1110.89 914.398 1112.8 916.939 1114.21C919.34 1115.77 922.164 1116.54 925.412 1116.54Z" fill="black"/>
<path d="M941.293 1146.29C940.902 1146.68 940.902 1147.32 941.293 1147.71L947.657 1154.07C948.047 1154.46 948.681 1154.46 949.071 1154.07C949.462 1153.68 949.462 1153.05 949.071 1152.66L943.414 1147L949.071 1141.34C949.462 1140.95 949.462 1140.32 949.071 1139.93C948.681 1139.54 948.047 1139.54 947.657 1139.93L941.293 1146.29ZM1019 1147V1146H942V1147V1148H1019V1147Z" fill="black"/>
<rect width="486" height="494" transform="translate(1308 251)" fill="#D0D0D0"/>
<path d="M1479.59 558.542C1476.49 558.542 1473.66 557.765 1471.12 556.212C1468.72 554.8 1466.74 552.894 1465.19 550.493C1463.78 547.951 1463.07 545.127 1463.07 542.021C1463.07 538.914 1463.78 536.161 1465.19 533.76C1466.74 531.219 1468.72 529.242 1471.12 527.83C1473.66 526.277 1476.49 525.5 1479.59 525.5C1482.84 525.5 1485.67 526.277 1488.07 527.83C1490.61 529.242 1492.58 531.219 1494 533.76C1495.41 536.161 1496.11 538.914 1496.11 542.021C1496.11 545.127 1495.41 547.951 1494 550.493C1492.58 552.894 1490.61 554.8 1488.07 556.212C1485.67 557.765 1482.84 558.542 1479.59 558.542Z" fill="black"/>
<path d="M1550.59 558.542C1547.48 558.542 1544.66 557.765 1542.12 556.212C1539.72 554.8 1537.74 552.894 1536.19 550.493C1534.77 547.951 1534.07 545.127 1534.07 542.021C1534.07 538.914 1534.77 536.161 1536.19 533.76C1537.74 531.219 1539.72 529.242 1542.12 527.83C1544.66 526.277 1547.48 525.5 1550.59 525.5C1553.84 525.5 1556.66 526.277 1559.06 527.83C1561.6 529.242 1563.58 531.219 1564.99 533.76C1566.4 536.161 1567.11 538.914 1567.11 542.021C1567.11 545.127 1566.4 547.951 1564.99 550.493C1563.58 552.894 1561.6 554.8 1559.06 556.212C1556.66 557.765 1553.84 558.542 1550.59 558.542Z" fill="black"/>
<path d="M1583.59 558.542C1580.48 558.542 1577.66 557.765 1575.12 556.212C1572.72 554.8 1570.74 552.894 1569.19 550.493C1567.77 547.951 1567.07 545.127 1567.07 542.021C1567.07 538.914 1567.77 536.161 1569.19 533.76C1570.74 531.219 1572.72 529.242 1575.12 527.83C1577.66 526.277 1580.48 525.5 1583.59 525.5C1586.84 525.5 1589.66 526.277 1592.06 527.83C1594.6 529.242 1596.58 531.219 1597.99 533.76C1599.4 536.161 1600.11 538.914 1600.11 542.021C1600.11 545.127 1599.4 547.951 1597.99 550.493C1596.58 552.894 1594.6 554.8 1592.06 556.212C1589.66 557.765 1586.84 558.542 1583.59 558.542Z" fill="black"/>
<path d="M1556.76 517.909L1556.01 504.862" stroke="black" stroke-width="2" stroke-linecap="round"/>
<line x1="1561.54" y1="519.795" x2="1565.49" y2="508.61" stroke="black" stroke-width="2" stroke-linecap="round"/>
<line x1="1565.94" y1="521.943" x2="1576.36" y2="513.826" stroke="black" stroke-width="2" stroke-linecap="round"/>
<rect width="486" height="494" transform="matrix(-1 0 0 1 1794 809)" fill="#D0D0D0"/>
<path d="M1622.41 1116.54C1625.51 1116.54 1628.34 1115.77 1630.88 1114.21C1633.28 1112.8 1635.26 1110.89 1636.81 1108.49C1638.22 1105.95 1638.93 1103.13 1638.93 1100.02C1638.93 1096.91 1638.22 1094.16 1636.81 1091.76C1635.26 1089.22 1633.28 1087.24 1630.88 1085.83C1628.34 1084.28 1625.51 1083.5 1622.41 1083.5C1619.16 1083.5 1616.33 1084.28 1613.93 1085.83C1611.39 1087.24 1609.42 1089.22 1608 1091.76C1606.59 1094.16 1605.89 1096.91 1605.89 1100.02C1605.89 1103.13 1606.59 1105.95 1608 1108.49C1609.42 1110.89 1611.39 1112.8 1613.93 1114.21C1616.33 1115.77 1619.16 1116.54 1622.41 1116.54Z" fill="black"/>
<path d="M1551.41 1116.54C1554.52 1116.54 1557.34 1115.77 1559.88 1114.21C1562.28 1112.8 1564.26 1110.89 1565.81 1108.49C1567.23 1105.95 1567.93 1103.13 1567.93 1100.02C1567.93 1096.91 1567.23 1094.16 1565.81 1091.76C1564.26 1089.22 1562.28 1087.24 1559.88 1085.83C1557.34 1084.28 1554.52 1083.5 1551.41 1083.5C1548.16 1083.5 1545.34 1084.28 1542.94 1085.83C1540.4 1087.24 1538.42 1089.22 1537.01 1091.76C1535.6 1094.16 1534.89 1096.91 1534.89 1100.02C1534.89 1103.13 1535.6 1105.95 1537.01 1108.49C1538.42 1110.89 1540.4 1112.8 1542.94 1114.21C1545.34 1115.77 1548.16 1116.54 1551.41 1116.54Z" fill="black"/>
<path d="M1518.41 1116.54C1521.52 1116.54 1524.34 1115.77 1526.88 1114.21C1529.28 1112.8 1531.26 1110.89 1532.81 1108.49C1534.23 1105.95 1534.93 1103.13 1534.93 1100.02C1534.93 1096.91 1534.23 1094.16 1532.81 1091.76C1531.26 1089.22 1529.28 1087.24 1526.88 1085.83C1524.34 1084.28 1521.52 1083.5 1518.41 1083.5C1515.16 1083.5 1512.34 1084.28 1509.94 1085.83C1507.4 1087.24 1505.42 1089.22 1504.01 1091.76C1502.6 1094.16 1501.89 1096.91 1501.89 1100.02C1501.89 1103.13 1502.6 1105.95 1504.01 1108.49C1505.42 1110.89 1507.4 1112.8 1509.94 1114.21C1512.34 1115.77 1515.16 1116.54 1518.41 1116.54Z" fill="black"/>
<path d="M1545.24 1075.91L1545.99 1062.86" stroke="black" stroke-width="2" stroke-linecap="round"/>
<line x1="1" y1="-1" x2="12.8602" y2="-1" transform="matrix(-0.332667 -0.943044 -0.943044 0.332667 1539.85 1079.07)" stroke="black" stroke-width="2" stroke-linecap="round"/>
<line x1="1" y1="-1" x2="14.2104" y2="-1" transform="matrix(-0.788935 -0.614477 -0.614477 0.788935 1536.24 1081.35)" stroke="black" stroke-width="2" stroke-linecap="round"/>
<rect width="486" height="494" transform="translate(1901 251)" fill="#D0D0D0"/>
<path d="M2149.76 517.909L2149.01 504.862" stroke="black" stroke-width="2" stroke-linecap="round"/>
<line x1="2154.54" y1="519.795" x2="2158.49" y2="508.61" stroke="black" stroke-width="2" stroke-linecap="round"/>
<line x1="2158.94" y1="521.943" x2="2169.36" y2="513.826" stroke="black" stroke-width="2" stroke-linecap="round"/>
<path d="M2158.68 502.004C2158.91 501.913 2158.31 499.795 2160.3 500.826C2161.89 501.65 2162.06 500.639 2161.61 499.513C2161.29 498.943 2161.13 497.818 2162.14 498.248" stroke="black" stroke-width="0.388697" stroke-linecap="round"/>
<path d="M2165.87 509C2165.57 509 2165.31 508.891 2165.09 508.674C2164.87 508.456 2164.76 508.194 2164.76 507.889C2164.76 507.583 2164.87 507.322 2165.09 507.104C2165.31 506.887 2165.57 506.778 2165.87 506.778C2165.98 506.778 2166.08 506.791 2166.17 506.816C2166.26 506.841 2166.35 506.88 2166.43 506.931L2166.43 504L2168.1 504L2168.1 505.111L2166.99 505.111L2166.99 507.889C2166.99 508.194 2166.88 508.456 2166.66 508.674C2166.44 508.891 2166.18 509 2165.87 509Z" fill="black"/>
<path d="M2152.87 504C2152.57 504 2152.31 503.891 2152.09 503.674C2151.87 503.456 2151.76 503.194 2151.76 502.889C2151.76 502.583 2151.87 502.322 2152.09 502.104C2152.31 501.887 2152.57 501.778 2152.87 501.778C2152.98 501.778 2153.08 501.791 2153.17 501.816C2153.26 501.841 2153.35 501.88 2153.43 501.931L2153.43 499L2155.1 499L2155.1 500.111L2153.99 500.111L2153.99 502.889C2153.99 503.194 2153.88 503.456 2153.66 503.674C2153.44 503.891 2153.18 504 2152.87 504Z" fill="black"/>
<path d="M2072.59 558.542C2069.49 558.542 2066.66 557.765 2064.12 556.212C2061.72 554.8 2059.74 552.894 2058.19 550.493C2056.78 547.951 2056.07 545.127 2056.07 542.021C2056.07 538.914 2056.78 536.161 2058.19 533.76C2059.74 531.219 2061.72 529.242 2064.12 527.83C2066.66 526.277 2069.49 525.5 2072.59 525.5C2075.84 525.5 2078.67 526.277 2081.07 527.83C2083.61 529.242 2085.58 531.219 2087 533.76C2088.41 536.161 2089.11 538.914 2089.11 542.021C2089.11 545.127 2088.41 547.951 2087 550.493C2085.58 552.894 2083.61 554.8 2081.07 556.212C2078.67 557.765 2075.84 558.542 2072.59 558.542Z" fill="black"/>
<path d="M2143.59 558.542C2140.48 558.542 2137.66 557.765 2135.12 556.212C2132.72 554.8 2130.74 552.894 2129.19 550.493C2127.77 547.951 2127.07 545.127 2127.07 542.021C2127.07 538.914 2127.77 536.161 2129.19 533.76C2130.74 531.219 2132.72 529.242 2135.12 527.83C2137.66 526.277 2140.48 525.5 2143.59 525.5C2146.84 525.5 2149.66 526.277 2152.06 527.83C2154.6 529.242 2156.58 531.219 2157.99 533.76C2159.4 536.161 2160.11 538.914 2160.11 542.021C2160.11 545.127 2159.4 547.951 2157.99 550.493C2156.58 552.894 2154.6 554.8 2152.06 556.212C2149.66 557.765 2146.84 558.542 2143.59 558.542Z" fill="black"/>
<path d="M2176.59 558.542C2173.48 558.542 2170.66 557.765 2168.12 556.212C2165.72 554.8 2163.74 552.894 2162.19 550.493C2160.77 547.951 2160.07 545.127 2160.07 542.021C2160.07 538.914 2160.77 536.161 2162.19 533.76C2163.74 531.219 2165.72 529.242 2168.12 527.83C2170.66 526.277 2173.48 525.5 2176.59 525.5C2179.84 525.5 2182.66 526.277 2185.06 527.83C2187.6 529.242 2189.58 531.219 2190.99 533.76C2192.4 536.161 2193.11 538.914 2193.11 542.021C2193.11 545.127 2192.4 547.951 2190.99 550.493C2189.58 552.894 2187.6 554.8 2185.06 556.212C2182.66 557.765 2179.84 558.542 2176.59 558.542Z" fill="black"/>
<rect width="486" height="494" transform="matrix(-1 0 0 1 2387 816)" fill="#D0D0D0"/>
<path d="M2138.24 1082.91L2138.99 1069.86" stroke="black" stroke-width="2" stroke-linecap="round"/>
<line x1="1" y1="-1" x2="12.8602" y2="-1" transform="matrix(-0.332667 -0.943044 -0.943044 0.332667 2132.85 1086.07)" stroke="black" stroke-width="2" stroke-linecap="round"/>
<line x1="1" y1="-1" x2="14.2104" y2="-1" transform="matrix(-0.788935 -0.614477 -0.614477 0.788935 2129.24 1088.35)" stroke="black" stroke-width="2" stroke-linecap="round"/>
<path d="M2129.35 1066.98C2129.28 1066.74 2127.11 1067.15 2128.32 1065.26C2129.28 1063.75 2128.29 1063.49 2127.12 1063.84C2126.53 1064.11 2125.39 1064.17 2125.91 1063.2" stroke="black" stroke-width="0.388697" stroke-linecap="round"/>
<path d="M2121.01 1074C2120.71 1074 2120.45 1073.89 2120.23 1073.67C2120.01 1073.46 2119.9 1073.19 2119.9 1072.89C2119.9 1072.58 2120.01 1072.32 2120.23 1072.1C2120.45 1071.89 2120.71 1071.78 2121.01 1071.78C2121.12 1071.78 2121.22 1071.79 2121.31 1071.82C2121.4 1071.84 2121.49 1071.88 2121.57 1071.93L2121.57 1069L2123.24 1069L2123.24 1070.11L2122.13 1070.11L2122.13 1072.89C2122.13 1073.19 2122.02 1073.46 2121.8 1073.67C2121.58 1073.89 2121.32 1074 2121.01 1074Z" fill="black"/>
<path d="M2134.01 1069C2133.71 1069 2133.45 1068.89 2133.23 1068.67C2133.01 1068.46 2132.9 1068.19 2132.9 1067.89C2132.9 1067.58 2133.01 1067.32 2133.23 1067.1C2133.45 1066.89 2133.71 1066.78 2134.01 1066.78C2134.12 1066.78 2134.22 1066.79 2134.31 1066.82C2134.4 1066.84 2134.49 1066.88 2134.57 1066.93L2134.57 1064L2136.24 1064L2136.24 1065.11L2135.13 1065.11L2135.13 1067.89C2135.13 1068.19 2135.02 1068.46 2134.8 1068.67C2134.58 1068.89 2134.32 1069 2134.01 1069Z" fill="black"/>
<path d="M2215.41 1123.54C2218.51 1123.54 2221.34 1122.77 2223.88 1121.21C2226.28 1119.8 2228.26 1117.89 2229.81 1115.49C2231.22 1112.95 2231.93 1110.13 2231.93 1107.02C2231.93 1103.91 2231.22 1101.16 2229.81 1098.76C2228.26 1096.22 2226.28 1094.24 2223.88 1092.83C2221.34 1091.28 2218.51 1090.5 2215.41 1090.5C2212.16 1090.5 2209.33 1091.28 2206.93 1092.83C2204.39 1094.24 2202.42 1096.22 2201 1098.76C2199.59 1101.16 2198.89 1103.91 2198.89 1107.02C2198.89 1110.13 2199.59 1112.95 2201 1115.49C2202.42 1117.89 2204.39 1119.8 2206.93 1121.21C2209.33 1122.77 2212.16 1123.54 2215.41 1123.54Z" fill="black"/>
<path d="M2144.41 1123.54C2147.52 1123.54 2150.34 1122.77 2152.88 1121.21C2155.28 1119.8 2157.26 1117.89 2158.81 1115.49C2160.23 1112.95 2160.93 1110.13 2160.93 1107.02C2160.93 1103.91 2160.23 1101.16 2158.81 1098.76C2157.26 1096.22 2155.28 1094.24 2152.88 1092.83C2150.34 1091.28 2147.52 1090.5 2144.41 1090.5C2141.16 1090.5 2138.34 1091.28 2135.94 1092.83C2133.4 1094.24 2131.42 1096.22 2130.01 1098.76C2128.6 1101.16 2127.89 1103.91 2127.89 1107.02C2127.89 1110.13 2128.6 1112.95 2130.01 1115.49C2131.42 1117.89 2133.4 1119.8 2135.94 1121.21C2138.34 1122.77 2141.16 1123.54 2144.41 1123.54Z" fill="black"/>
<path d="M2111.41 1123.54C2114.52 1123.54 2117.34 1122.77 2119.88 1121.21C2122.28 1119.8 2124.26 1117.89 2125.81 1115.49C2127.23 1112.95 2127.93 1110.13 2127.93 1107.02C2127.93 1103.91 2127.23 1101.16 2125.81 1098.76C2124.26 1096.22 2122.28 1094.24 2119.88 1092.83C2117.34 1091.28 2114.52 1090.5 2111.41 1090.5C2108.16 1090.5 2105.34 1091.28 2102.94 1092.83C2100.4 1094.24 2098.42 1096.22 2097.01 1098.76C2095.6 1101.16 2094.89 1103.91 2094.89 1107.02C2094.89 1110.13 2095.6 1112.95 2097.01 1115.49C2098.42 1117.89 2100.4 1119.8 2102.94 1121.21C2105.34 1122.77 2108.16 1123.54 2111.41 1123.54Z" fill="black"/>
</svg>
