<svg width="22" height="22" viewBox="0 0 22 22" fill="none" xmlns="http://www.w3.org/2000/svg">
<path d="M16.4277 9.39626C16.4277 10.8983 15.9401 12.2858 15.1188 13.4115L19.2616 17.5577C19.6707 17.9667 19.6707 18.631 19.2616 19.0401C18.8526 19.4491 18.1883 19.4491 17.7792 19.0401L13.6363 14.8939C12.5106 15.7153 11.1231 16.2029 9.62109 16.2029C5.86108 16.2029 2.81445 13.1563 2.81445 9.39626C2.81445 5.63625 5.86108 2.58963 9.62109 2.58963C13.3811 2.58963 16.4277 5.63625 16.4277 9.39626ZM9.62109 14.1086C12.2227 14.1086 14.3334 11.9978 14.3334 9.39626C14.3334 6.79469 12.2227 4.68398 9.62109 4.68398C7.01951 4.68398 4.9088 6.79469 4.9088 9.39626C4.9088 11.9978 7.01951 14.1086 9.62109 14.1086Z" fill="black"/>
</svg>
